<svg xmlns="http://www.w3.org/2000/svg" xmlns:xlink="http://www.w3.org/1999/xlink" viewBox="0 0 2147.63 2146.14"><defs><style>.cls-1,.cls-4{fill:none;}.cls-2{clip-path:url(#clip-path);}.cls-3{fill:url(#linear-gradient);}.cls-4{stroke:#fff;stroke-miterlimit:10;stroke-width:44px;}.cls-5{clip-path:url(#clip-path-2);}.cls-6{fill:url(#linear-gradient-2);}.cls-7{clip-path:url(#clip-path-3);}.cls-8{fill:url(#linear-gradient-3);}.cls-9{fill:#fff;}</style><clipPath id="clip-path" transform="translate(473.77 378.6)"><path class="cls-1" d="M597.9,122A59.9,59.9,0,0,0,570,130L51.94,429.16A59.89,59.89,0,0,0,22,481v598.26a60,60,0,0,0,30,52l153.11,88.39L287,1266.94l315.12-255.23,313.36,253.8,232.57-134.27a60,60,0,0,0,30-52V481.09a60,60,0,0,0-30-52L630,130a59.94,59.94,0,0,0-30-8c-.71,0-1.43,0-2.14,0"/></clipPath><linearGradient id="linear-gradient" x1="-399.96" y1="1868.41" x2="-398.96" y2="1868.41" gradientTransform="matrix(1156.09, 0, 0, -1156.09, 462332.56, 2160733.53)" gradientUnits="userSpaceOnUse"><stop offset="0" stop-color="#292b33"/><stop offset="0.26" stop-color="#2b2e37"/><stop offset="0.51" stop-color="#2f3743"/><stop offset="0.76" stop-color="#374756"/><stop offset="1" stop-color="#425c71"/></linearGradient><clipPath id="clip-path-2" transform="translate(473.77 378.6)"><path class="cls-1" d="M348.09,629.75l-.15.56a256.57,256.57,0,0,0,86.28,244.08l4.44,4,1.74,1.09,160.13,129.69L760.66,879.52l.76-.95,4.45-4a256.48,256.48,0,0,0,86.27-244.08l-.14-.8C804.27,418.32,717.09,216.12,600.69,41.28l-.65-1,0-.07c-116.69,175-204.1,377.8-251.9,589.5"/></clipPath><linearGradient id="linear-gradient-2" x1="-399.96" y1="1868.42" x2="-398.96" y2="1868.42" gradientTransform="matrix(838.88, 0, 0, -838.88, 335697.45, 1567910.73)" gradientUnits="userSpaceOnUse"><stop offset="0" stop-color="#425c71"/><stop offset="0.06" stop-color="#426e7b"/><stop offset="0.21" stop-color="#419a91"/><stop offset="0.37" stop-color="#41bfa4"/><stop offset="0.53" stop-color="#40dbb3"/><stop offset="0.69" stop-color="#40efbe"/><stop offset="0.84" stop-color="#40fbc4"/><stop offset="1" stop-color="#40ffc6"/></linearGradient><clipPath id="clip-path-3" transform="translate(473.77 378.6)"><path class="cls-1" d="M505.86,1210.42a254.77,254.77,0,0,0,29.9,120.16l.65,1.15c24.42,39,45.72,80,65.1,122.15a1072.11,1072.11,0,0,1,61.2-115l1.07-2a256.13,256.13,0,0,0-62.27-326.05,255.53,255.53,0,0,0-95.65,199.57"/></clipPath><linearGradient id="linear-gradient-3" x1="-399.96" y1="1868.39" x2="-398.96" y2="1868.39" gradientTransform="matrix(0, -383.68, -383.68, 0, 717461.69, -152030.22)" gradientUnits="userSpaceOnUse"><stop offset="0" stop-color="#9fff40"/><stop offset="0.16" stop-color="#9dfb41"/><stop offset="0.32" stop-color="#96ef45"/><stop offset="0.47" stop-color="#8bdc4b"/><stop offset="0.63" stop-color="#7bc053"/><stop offset="0.78" stop-color="#679d5e"/><stop offset="0.93" stop-color="#4e726a"/><stop offset="1" stop-color="#425c71"/></linearGradient></defs><title>launch_stach</title><g id="Layer_2" data-name="Layer 2"><g id="Layer_1-2" data-name="Layer 1"><g class="cls-2"><rect class="cls-3" x="-184.75" y="-92.37" width="1569.59" height="1573.67" transform="translate(172.37 1245.49) rotate(-60)"/></g><path class="cls-4" d="M597.9,122A59.9,59.9,0,0,0,570,130L51.94,429.16A59.89,59.89,0,0,0,22,481v598.26a60,60,0,0,0,30,52l153.11,88.39L287,1266.94l315.12-255.23,313.36,253.8,232.57-134.27a60,60,0,0,0,30-52V481.09a60,60,0,0,0-30-52L630,130a59.91,59.91,0,0,0-32.14-8" transform="translate(473.77 378.6)"/><g class="cls-5"><rect class="cls-6" x="52.13" y="60.2" width="1095.83" height="929.06" transform="translate(319.36 1160.62) rotate(-60)"/></g><path class="cls-4" d="M600.69,41.28l-.65-1,0-.07c-116.69,175-204.1,377.8-251.9,589.5l-.15.56a256.57,256.57,0,0,0,86.28,244.08l4.44,4,1.74,1.09,160.13,129.69L760.66,879.52l.76-.95,4.45-4a256.48,256.48,0,0,0,86.27-244.08l-.14-.8C804.27,418.32,717.08,216.12,600.69,41.28" transform="translate(473.77 378.6)"/><g class="cls-7"><rect class="cls-8" x="407.92" y="992.7" width="387.19" height="479.33" transform="translate(-61.82 844.46) rotate(-30)"/></g><path class="cls-4" d="M535.76,1330.58a256.15,256.15,0,0,1,65.75-319.73,256.13,256.13,0,0,1,62.27,326.05l-1.07,2a1072.11,1072.11,0,0,0-61.2,115c-19.39-42.16-40.68-83.11-65.1-122.15Z" transform="translate(473.77 378.6)"/><path class="cls-9" d="M663.23,424.61a60.45,60.45,0,1,1-60.44-60.45,60.44,60.44,0,0,1,60.44,60.45" transform="translate(473.77 378.6)"/></g></g></svg>